<svg width="82" height="81" viewBox="0 0 82 81" fill="none" xmlns="http://www.w3.org/2000/svg">
<path d="M41.0575 61.9595C42.6984 62.5181 43.9341 63.34 44.0703 65.1006V78.0571M1.75854 54.1097C4.39503 61.7941 3.64662 66.0968 1.87906 71.6468L42.3703 79.4993L71.0517 57.7743C73.4827 55.9034 72.7122 53.3022 72.6183 50.4453M18.2689 41.4149L1.99997 54.1098L41.5279 61.9623L50.9276 54.6333M40.4432 40.1062C38.099 41.5749 38.131 42.2713 38.1536 44.4249L38.0331 55.5492M10.5598 23.0928C10.5598 23.0928 9.0976 24.2181 9.11366 25.0559C9.17274 28.139 9.11366 32.7775 9.11366 32.7775C9.52313 35.2914 10.2264 35.9429 11.4033 36.5728L37.9149 55.1573C39.2167 56.2861 39.787 56.0643 41.6508 55.9426L80.3351 49.0062C78.2016 42.4398 78.2692 38.868 80.3351 33.1703M34.0587 35.6569L40.5661 40.2375L80.2138 33.1703L61.6553 20.4754M30.3235 23.093C27.2932 24.0153 28.5159 31.61 28.6364 35.526M7.54716 6.99612C6.00625 7.46774 5.01646 8.56661 4.896 10.7914V17.597C4.93418 18.9524 4.98219 19.3564 6.34211 20.2145L27.9138 35.1343C29.2991 36.1011 30.526 36.3122 31.8906 35.9195L62.8614 30.4228C60.6198 24.7601 61.0784 22.8445 62.9819 17.5971M7.42613 7.12707L30.3223 23.2246L62.8604 17.5971L39.6015 1.49951L7.42613 7.12707Z" stroke="#9DBB3B" stroke-width="3" stroke-linejoin="round"/>
</svg>
