<svg width="114" height="104" viewBox="0 0 114 104" fill="none" xmlns="http://www.w3.org/2000/svg">
<path d="M57.0149 79.471C59.2996 80.1871 61.02 81.2408 61.2096 83.4979V100.109M2.29797 69.407C5.96882 79.2589 4.92679 84.7751 2.46576 91.8906L58.8428 101.958L98.7765 74.1053C102.161 71.7067 101.089 68.3718 100.958 64.7091M25.2857 53.1317L2.63411 69.4072L57.6698 79.4745L70.7573 70.0783M56.1596 51.4537C52.8956 53.3367 52.9402 54.2296 52.9717 56.9907L52.8039 71.2526M14.5521 29.6417C14.5521 29.6417 12.5163 31.0844 12.5387 32.1585C12.6209 36.1112 12.5387 42.058 12.5387 42.058C13.1088 45.2809 14.088 46.1162 15.7266 46.9238L52.6394 70.7502C54.4518 72.1973 55.2459 71.913 57.8409 71.7569L111.702 62.8641C108.731 54.4456 108.826 49.8664 111.702 42.5616M47.2702 45.7495L56.3307 51.6221L111.533 42.5616L85.6937 26.286M42.0697 29.6419C37.8505 30.8244 39.5529 40.5612 39.7206 45.5818M10.3576 9.00484C8.21216 9.60949 6.83405 11.0183 6.66632 13.8706V22.5957C6.71949 24.3335 6.78633 24.8514 8.67978 25.9515L38.7146 45.0795C40.6434 46.3191 42.3516 46.5896 44.2515 46.0863L87.3729 39.0391C84.252 31.7792 84.8904 29.3233 87.5407 22.5959M10.1891 9.17273L42.0679 29.8107L87.3715 22.5959L54.9877 1.95789L10.1891 9.17273Z" stroke="#AC6951" stroke-width="3" stroke-linejoin="round"/>
</svg>
