<svg width="104" height="104" viewBox="0 0 104 104" fill="none" xmlns="http://www.w3.org/2000/svg">
<path d="M23.6942 39.4538H11.7515C8.83363 39.8378 5.96241 42.0206 5.54768 44.8823V73.1103M45.4078 92.4964C45.4033 94.7885 46.1229 96.282 47.8895 96.9942H55.3343C57.3395 96.988 58.1089 95.9329 58.7464 94.6678L58.9015 92.9617M80.3051 39.7627L92.558 39.6076C96.4237 39.8779 98.0257 42.628 98.6068 45.3464V91.256M5.3914 81.4848V91.8764M83.2508 101.958H7.25228C3.4821 101.098 2.07721 99.4043 1.51526 96.3731V92.1853H102.485V96.5281C102.275 99.2834 101.01 100.976 97.8316 101.957H91.9378M80.8016 46.2757H92.7443V91.8748M23.6942 46.2757H11.7516V91.8748M82.478 9.67271L91.0072 15.7222C92.9165 17.2739 94.4455 19.8567 92.248 23.4771L85.7338 32.4729M60.7629 39.9177L68.5178 45.5012M35.7909 48.9134H52.5416M35.7909 38.2115H52.5416M72.084 23.4771H33.4638C27.3494 23.6998 23.9277 28.5732 23.8476 32.3177L24.0027 55.4278C24.0738 59.8693 28.7222 64.0186 33.1536 64.1133L33.3087 76.9866L46.492 64.1133H62.157M70.3772 63.9582C76.3881 63.877 79.8453 58.0269 79.6831 55.1176C79.6237 54.0515 79.6831 32.0076 79.6831 32.0076M60.6076 48.7583L68.8278 45.9665L95.0386 9.98452C99.1182 4.17823 90.6296 -1.13558 86.5081 4.09073L60.9162 39.9186L60.6076 48.7583Z" stroke="#A32E9C" stroke-width="3" stroke-linecap="round"/>
</svg>
