<svg width="85" height="86" viewBox="0 0 85 86" fill="none" xmlns="http://www.w3.org/2000/svg">
<path d="M19.7431 32.805H10.189C7.8547 33.1195 5.55772 34.9074 5.22593 37.2512V60.3716M37.114 76.2499C37.1104 78.1273 37.6861 79.3505 39.0994 79.9339H45.0552C46.6594 79.9288 47.2749 79.0646 47.7849 78.0284L47.909 76.631M65.0318 33.0581L74.8342 32.931C77.9267 33.1524 79.2084 35.4049 79.6732 37.6314V75.234M5.10091 67.2308V75.7421M67.3884 83.9994H6.58961C3.57347 83.2951 2.44956 81.9079 2 79.4251V75.9951H82.7755V79.5521C82.6081 81.8088 81.5958 83.1955 79.0531 83.9983H74.338M65.4291 38.3926H74.9832V75.7408M19.7432 38.3926H10.1891V75.7408M66.7702 8.41262L73.5935 13.3675C75.121 14.6384 76.3442 16.7539 74.5861 19.7192L69.3748 27.0873M49.3981 33.185L55.602 37.7582M29.4205 40.553H42.821M29.4205 31.7875H42.821M58.455 19.7192H27.5588C22.6673 19.9016 19.93 23.8932 19.8659 26.9602L19.9899 45.8886C20.0468 49.5265 23.7655 52.925 27.3106 53.0026L27.4347 63.5465L37.9814 53.0026H50.5134M57.0896 52.8755C61.8982 52.809 64.6641 48.0174 64.5343 45.6346C64.4868 44.7613 64.5343 26.7061 64.5343 26.7061M49.2739 40.4259L55.85 38.1393L76.8187 8.66802C80.0824 3.91234 73.2915 -0.439975 69.9943 3.84067L49.5207 33.1857L49.2739 40.4259Z" stroke="#1D4359" stroke-width="3" stroke-linecap="round"/>
</svg>
