<svg width="18" height="18" viewBox="0 0 18 18" fill="none" xmlns="http://www.w3.org/2000/svg">
<path d="M9 8.41422L8.29289 9.12133L9 9.82843L9.70711 9.12133L9 8.41422ZM2.69857 2.11279L3.40567 1.40568L3.40567 1.40568L2.69857 2.11279ZM1.99146 2.81989L2.69857 2.11279L2.69857 2.11279L1.99146 2.81989ZM8.29289 9.12133L9 9.82843L9.70711 9.12133L9 8.41422L8.29289 9.12133ZM9 9.82843L9.70711 9.12133L9 8.41422L8.29289 9.12133L9 9.82843ZM15.3017 16.1301L14.5946 16.8372L14.5946 16.8372L15.3017 16.1301ZM16.0088 15.423L15.3017 16.1301L15.3017 16.1301L16.0088 15.423ZM9.70711 9.12133L9 8.41422L8.29289 9.12133L9 9.82843L9.70711 9.12133ZM15.3014 2.81989C15.1062 2.62463 15.1062 2.30805 15.3014 2.11279L16.7156 3.527C17.3014 2.94121 17.3014 1.99147 16.7156 1.40568L15.3014 2.81989ZM16.0085 2.81989C15.8133 3.01516 15.4967 3.01516 15.3014 2.81989L16.7156 1.40568C16.1299 0.819895 15.1801 0.819894 14.5943 1.40568L16.0085 2.81989ZM9.70711 9.12133L16.0085 2.81989L14.5943 1.40568L8.29289 7.70711L9.70711 9.12133ZM9.70711 7.70711L3.40567 1.40568L1.99146 2.81989L8.29289 9.12133L9.70711 7.70711ZM3.40567 1.40568C2.81989 0.819894 1.87014 0.819895 1.28435 1.40568L2.69857 2.81989C2.5033 3.01516 2.18672 3.01516 1.99146 2.81989L3.40567 1.40568ZM1.28435 1.40568C0.698568 1.99147 0.698567 2.94121 1.28435 3.527L2.69857 2.11279C2.89383 2.30805 2.89383 2.62463 2.69857 2.81989L1.28435 1.40568ZM1.28435 3.527L7.58579 9.82843L9 8.41422L2.69857 2.11279L1.28435 3.527ZM2.69829 16.1301L9 9.82843L7.58579 8.41422L1.28408 14.7159L2.69829 16.1301ZM2.69829 15.423C2.89356 15.6183 2.89356 15.9349 2.69829 16.1301L1.28408 14.7159C0.698295 15.3017 0.698295 16.2515 1.28408 16.8372L2.69829 15.423ZM1.99119 15.423C2.18645 15.2278 2.50303 15.2278 2.69829 15.423L1.28408 16.8372C1.86987 17.423 2.81961 17.423 3.4054 16.8372L1.99119 15.423ZM8.29289 9.12133L1.99119 15.423L3.4054 16.8372L9.70711 10.5355L8.29289 9.12133ZM8.29289 10.5355L14.5946 16.8372L16.0088 15.423L9.70711 9.12133L8.29289 10.5355ZM14.5946 16.8372C15.1804 17.423 16.1301 17.423 16.7159 16.8372L15.3017 15.423C15.497 15.2278 15.8135 15.2278 16.0088 15.423L14.5946 16.8372ZM16.7159 16.8372C17.3017 16.2515 17.3017 15.3017 16.7159 14.7159L15.3017 16.1301C15.1064 15.9349 15.1064 15.6183 15.3017 15.423L16.7159 16.8372ZM16.7159 14.7159L10.4142 8.41422L9 9.82843L15.3017 16.1301L16.7159 14.7159ZM15.3014 2.11279L9 8.41422L10.4142 9.82843L16.7156 3.527L15.3014 2.11279Z" fill="#1D4359"/>
</svg>
