<svg width="20" height="20" viewBox="0 0 20 20" fill="none" xmlns="http://www.w3.org/2000/svg">
<path d="M9.5 9.5V10.5H10.5V9.5H9.5ZM9.5 10.5H10.5V9.5H9.5V10.5ZM10.5 10.5V9.5H9.5V10.5H10.5ZM10.5 9.5H9.5V10.5H10.5V9.5ZM10 2.5C9.72386 2.5 9.5 2.27614 9.5 2H11.5C11.5 1.17157 10.8284 0.5 10 0.5V2.5ZM10.5 2C10.5 2.27614 10.2761 2.5 10 2.5V0.5C9.17157 0.5 8.5 1.17157 8.5 2H10.5ZM10.5 9.5V2H8.5V9.5H10.5ZM9.5 8.5H2V10.5H9.5V8.5ZM2 8.5C1.17157 8.5 0.5 9.17157 0.5 10H2.5C2.5 10.2761 2.27614 10.5 2 10.5V8.5ZM0.5 10C0.5 10.8284 1.17157 11.5 2 11.5V9.5C2.27614 9.5 2.5 9.72386 2.5 10H0.5ZM2 11.5H9.5V9.5H2V11.5ZM10.5 18V10.5H8.5V18H10.5ZM10 17.5C10.2761 17.5 10.5 17.7239 10.5 18H8.5C8.5 18.8284 9.17157 19.5 10 19.5V17.5ZM9.5 18C9.5 17.7239 9.72386 17.5 10 17.5V19.5C10.8284 19.5 11.5 18.8284 11.5 18H9.5ZM9.5 10.5V18H11.5V10.5H9.5ZM10.5 11.5H18V9.5H10.5V11.5ZM18 11.5C18.8284 11.5 19.5 10.8284 19.5 10H17.5C17.5 9.72386 17.7239 9.5 18 9.5V11.5ZM19.5 10C19.5 9.17157 18.8284 8.5 18 8.5V10.5C17.7239 10.5 17.5 10.2761 17.5 10H19.5ZM18 8.5H10.5V10.5H18V8.5ZM9.5 2V9.5H11.5V2H9.5Z" fill="white"/>
</svg>
