<svg width="96" height="103" viewBox="0 0 96 103" fill="none" xmlns="http://www.w3.org/2000/svg">
<path d="M45.9218 44.0183H33.7421V47.2829M46.5495 40.2513H33.3654C30.3218 40.3283 30.0895 42.9618 29.9751 45.7762M88.3615 86.3324H89.4916M85.0969 86.3324H86.2269M81.8322 86.3324H82.9623M59.106 86.3324C59.106 86.3324 64.0499 86.4505 66.3888 86.3324C67.8398 86.2591 68.2975 85.2439 69.2768 83.0678M52.3257 43.8916H88.2376V79.4255H60.6141M52.9547 40.1244H88.2372C90.4024 40.043 91.753 41.6479 91.753 43.2635V82.9407H60.111M60.3422 11.3104L63.7324 12.0638M58.8355 17.4629L62.2258 18.2163M47.0325 15.3283L50.4228 16.0817M47.786 8.92461L51.1762 9.67799M51.5529 18.9696L44.6469 49.8575L51.3017 51.2386L56.4499 19.8481M57.8311 48.3504C62.0437 52.8283 61.308 58.9016 58.0822 63.0413C56.8407 64.6345 56.5128 67.5203 57.4544 69.0683C60.3473 73.8248 60.8842 78.5426 59.9657 83.2569C58.602 90.2568 53.2838 95.2353 40.3776 93.553M39.6242 65.3021C44.4833 70.7106 51.3433 68.8384 52.3061 62.7908C53.2347 56.9581 46.0937 52.7193 40.3776 57.6426M43.2656 81.2493C43.2656 81.2493 49.3212 82.3815 50.4227 82.6304C51.0849 82.7801 50.2274 87.5492 49.4182 87.2764C48.4078 86.9356 43.3911 86.1463 43.3911 86.1463M35.4731 47.8508C36.828 46.1014 37.6047 45.3725 39.6166 44.5862M26.2278 45.4541C39.3183 45.6773 44.5977 58.8111 37.1518 70.0645C48.3793 82.8277 43.4667 101.889 22.0843 101.958M18.0039 45.4541C4.91346 45.6773 -0.36601 58.8111 7.07987 70.0645C-4.14757 82.8277 0.765011 101.889 22.1474 101.958M20.0851 67.3697C16.9938 65.8442 16.2792 62.5721 17.5859 60.3037C18.8926 58.0351 21.7557 57.2007 24.0767 58.4119C26.3976 59.6231 27.3506 62.449 26.2368 64.8183C25.1231 67.1876 22.3392 68.3828 19.9256 67.3686M18.0883 59.101V22.166H25.4576V58.9234M57.2148 89.4718H88.4805C91.4406 89.5374 93.6765 87.0445 94.5076 85.7048C95.038 84.8497 94.7449 82.7828 93.6287 82.8168C92.5368 82.85 91.3685 82.8168 91.3685 82.8168M57.9564 19.9742L50.0459 18.3419L51.5527 6.66443L61.0955 8.54783L57.9564 19.9742ZM18.8781 1.95949C17.0078 1.90585 15.5072 3.18619 15.5134 5.38455V18.0809L17.9106 22.2537H21.6269H21.6396H25.3561L27.7533 18.0809V5.38455C27.7597 3.18614 26.259 1.90569 24.3886 1.95949C21.9558 3.79577 21.3631 3.85536 18.878 1.95949H18.8781ZM12.7609 5.73964H15.3358H12.7609ZM27.9309 5.73964H30.5059H27.9309ZM12.7609 10.7118H15.3358H12.7609ZM27.9309 10.7118H30.5059H27.9309ZM12.7609 15.5951H15.3358H12.7609ZM27.9309 15.5951H30.5059H27.9309ZM25.5313 54.2051C25.5911 55.4825 25.4043 59.1171 25.6352 59.1897C23.0465 57.2963 20.3155 57.3192 18.2659 59.3228C18.2659 59.3228 18.2441 55.1513 18.2071 53.9293C18.1787 52.9876 16.8472 54.165 15.7879 54.9909C11.8353 58.0758 10.7977 63.6211 13.3673 67.9265C17.0389 73.8523 25.9958 73.9012 29.7689 68.9177C32.8385 64.9532 32.4764 59.3234 28.924 55.7847C27.5997 54.4687 25.4664 52.8176 25.5312 54.2051L25.5313 54.2051ZM14.7144 82.0974H29.5418V86.8031H14.7144V82.0974Z" stroke="#EF9300" stroke-width="2" stroke-linecap="round" stroke-linejoin="round"/>
</svg>
