<svg width="50" height="54" viewBox="0 0 50 54" fill="none" xmlns="http://www.w3.org/2000/svg">
<circle cx="26.597" cy="22.0265" r="3.82149" fill="white"/>
<path d="M21.0278 30.8597C21.0278 30.5374 21.3272 30.2974 21.6427 30.3638C22.7181 30.5901 24.9806 31.0215 26.6026 31.021C28.2208 31.0206 30.4774 30.59 31.5512 30.3639C31.8666 30.2974 32.1661 30.5374 32.1661 30.8598V31.7845C32.1661 32.019 32.0046 32.2214 31.7748 32.2682C30.8235 32.4621 28.3402 32.9315 26.5998 32.9318C24.8574 32.932 22.3711 32.4622 21.4191 32.2682C21.1893 32.2214 21.0278 32.019 21.0278 31.7844V30.8597Z" fill="white"/>
<path fill-rule="evenodd" clip-rule="evenodd" d="M45.3558 7.14462C38.7381 4.16191 22.7998 -0.125613 16.5547 0.993096C10.3097 2.1118 -3.39159 37.53 2.10767 41.9107C7.60694 46.2915 27.4601 53.1888 38.7381 53.1888C50.0161 53.1888 51.9735 10.1273 45.3558 7.14462ZM26.6517 10.0542C25.8308 9.9773 24.9937 9.89884 23.9767 9.96025C23.7593 9.97338 23.561 9.98114 23.3741 9.98847C22.7005 10.0149 22.1743 10.0355 21.4283 10.2805C19.6271 10.8722 18.5185 11.6619 17.675 13.36C16.9207 14.8786 17.4949 16.2715 18.0705 17.6676C18.4151 18.5037 18.7602 19.3409 18.8208 20.2069C18.9303 21.7743 18.0444 23.0642 17.1793 24.3239C16.8761 24.7653 16.5754 25.2031 16.321 25.6478C16.2316 25.8042 16.1421 25.959 16.0531 26.113C15.0935 27.7727 14.1945 29.3279 14.08 31.5969C13.9844 33.4915 14.1034 34.6854 14.9722 36.3718C15.5375 37.4691 15.9791 38.0616 16.9189 38.8619C18.3869 40.1121 21.4915 40.725 21.4915 40.725C21.4915 40.725 27.5426 41.9231 31.2067 40.9351C31.4448 40.8709 31.6743 40.8109 31.8964 40.7528C33.6976 40.2818 35.0101 39.9385 36.4338 38.5341C37.685 37.2999 38.2031 36.3255 38.6783 34.6335C39.1337 33.0116 39.1432 31.9783 38.833 30.3225C38.604 29.1004 38.2127 28.3602 37.7133 27.4153C37.5741 27.1521 37.4265 26.8729 37.2717 26.563C36.825 25.6688 36.1022 24.6573 35.4547 23.7512C34.8432 22.8955 34.2988 22.1338 34.1175 21.6534C33.7444 20.6645 34.0208 19.5696 34.6225 18.2752C34.6476 18.2211 34.6735 18.1658 34.6998 18.1096C35.2286 16.9803 35.9474 15.4453 34.917 14.4671C34.1069 13.698 33.0139 14.0496 32.0461 14.3608C31.8417 14.4266 31.6429 14.4905 31.4535 14.5417C29.8614 14.9723 28.0372 13.3682 28.2433 11.7361C28.4495 10.1039 28.2433 10.1629 28.2433 10.1629C27.6911 10.1517 27.1747 10.1033 26.6517 10.0542Z" fill="white"/>
</svg>
