<svg width="96" height="104" viewBox="0 0 96 104" fill="none" xmlns="http://www.w3.org/2000/svg">
<path d="M17.8253 65.1337H39.943M17.8253 53.9576H46.7649M17.8253 43.1345H40.0599M47.1185 2.07628V17.3699C47.2992 21.883 51.2579 24.7412 54.1771 24.899H69.5883M69.9412 47.2505V25.1329L47.2356 1.95786H11.3539C5.61903 2.13863 2.48411 6.13614 2.41296 10.1929V78.3081C2.67914 84.6095 7.30885 87.5621 10.7656 87.7196H41.8232M56.5675 62.7971L69.0009 62.5966C75.5748 64.7121 76.129 73.4044 68.3993 75.03H56.768M60.5782 62.5966L60.1771 77.637M56.3669 79.843H71.4074M60.1776 82.049V85.4582M56.3681 86.2637H63.4227M88.1887 74.4276C88.1887 77.3339 87.6163 80.2117 86.5041 82.8967C85.3919 85.5817 83.7618 88.0214 81.7067 90.0764C79.6517 92.1315 77.212 93.7616 74.527 94.8738C71.842 95.986 68.9642 96.5584 66.0579 96.5584C60.1884 96.5584 54.5594 94.2268 50.409 90.0764C46.2587 85.9261 43.9271 80.2971 43.9271 74.4276C43.9271 68.5581 46.2587 62.9291 50.409 58.7787C54.5594 54.6284 60.1884 52.2968 66.0579 52.2968C68.9642 52.2968 71.842 52.8692 74.527 53.9814C77.212 55.0936 79.6517 56.7237 81.7067 58.7787C83.7618 60.8338 85.3919 63.2735 86.5041 65.9585C87.6163 68.6435 88.1887 71.5213 88.1887 74.4276ZM93.5871 74.4298C93.5871 81.7307 90.6868 88.7326 85.5243 93.8951C80.3618 99.0576 73.3599 101.958 66.059 101.958C58.7581 101.958 51.7563 99.0576 46.5938 93.8951C41.4312 88.7326 38.531 81.7307 38.531 74.4298C38.531 67.1289 41.4312 60.127 46.5938 54.9645C51.7563 49.802 58.7581 46.9017 66.059 46.9017C73.3599 46.9017 80.3618 49.802 85.5243 54.9645C90.6868 60.127 93.5871 67.1289 93.5871 74.4298Z" stroke="#9DBB3B" stroke-width="3" stroke-linecap="round" stroke-linejoin="round"/>
</svg>
