<svg width="112" height="104" viewBox="0 0 112 104" fill="none" xmlns="http://www.w3.org/2000/svg">
<path d="M71.2599 75.8935C71.2599 75.8935 71.3768 46.4461 71.2599 43.1924C71.0153 36.3911 62.6783 30.0083 58.7007 29.9222C53.0148 29.7994 41.6391 29.6852 41.6391 29.6852M12.0415 75.8937C12.0415 75.8937 11.9246 46.4463 12.0415 43.1926C12.2861 36.3913 20.6233 30.0085 24.6007 29.9224C30.2866 29.7996 41.6623 29.6854 41.6623 29.6854M58.0131 52.4342V75.42M25.0751 52.4342V75.42M82.6586 47.4575H97.3504M76.9713 60.0167H97.3504M76.9713 35.3712H97.3504M64.8862 23.049H97.3504M64.8862 91.7682V101.958M46.6397 91.7682V101.958M36.4501 101.721H75.7876M1.61658 76.3647H110.147M53.9548 9.3039H99.0091C105.311 9.3039 110.383 14.3768 110.383 20.6782V80.631C110.383 86.9325 105.311 92.0053 99.0091 92.0053H13.2262C6.92476 92.0053 1.85186 86.9325 1.85186 80.631V20.6782C1.85186 14.3768 6.92476 9.3039 13.2262 9.3039H29.3602M55.6431 15.9389C55.6431 19.6469 54.1701 23.203 51.5482 25.825C48.9262 28.4469 45.3701 29.9199 41.6621 29.9199C37.9541 29.9199 34.3979 28.4469 31.776 25.825C29.154 23.203 27.6811 19.6469 27.6811 15.9389C27.6811 12.2309 29.154 8.67478 31.776 6.05283C34.3979 3.43088 37.9541 1.95789 41.6621 1.95789C45.3701 1.95789 48.9262 3.43088 51.5482 6.05283C54.1701 8.67478 55.6431 12.2309 55.6431 15.9389V15.9389Z" stroke="#C71523" stroke-width="3" stroke-linecap="round"/>
</svg>
