<svg width="17" height="24" viewBox="0 0 17 24" fill="none" xmlns="http://www.w3.org/2000/svg">
<path fill-rule="evenodd" clip-rule="evenodd" d="M6.45236 8.3917C7.56393 8.07644 7.99024 7.78191 7.99691 6.7438C8.00359 5.70569 8.04882 4.66775 8.01257 3.72951C7.97635 2.79124 7.75663 1.80312 6.79282 1.56179C5.82901 1.32047 4.18302 0.847564 3.24864 0.659076C2.31423 0.470582 1.75848 0.953613 1.41422 1.54789C1.04537 2.18475 0.955478 2.95489 0.89382 3.69409C0.0450204 13.8684 7.4452 21.5566 13.0304 23.2297C13.9138 23.4731 15.3447 23.1628 15.5513 22.1988C15.808 21.001 16.0433 19.7986 16.2252 18.5853C16.3613 17.677 16.3326 16.452 15.6409 15.9965C14.844 15.4718 13.9857 15.0363 13.105 14.7359C12.2894 14.4577 11.6887 14.911 11.0935 15.608C10.3207 16.3801 10.0355 17.0892 9.2219 16.3807C7.56107 14.9345 5.70938 11.7844 4.99829 9.70775C4.61138 8.31327 5.34081 8.70709 6.45238 8.39178L6.45236 8.3917Z" fill="#1D4359"/>
</svg>
