<svg width="32" height="32" viewBox="0 0 32 32" fill="none" xmlns="http://www.w3.org/2000/svg">
<path d="M16.0004 31C24.2846 31 31.0004 24.2843 31.0004 16C31.0004 7.71573 24.2846 1 16.0004 1C7.7161 1 1.00037 7.71573 1.00037 16C1.00037 24.2843 7.7161 31 16.0004 31Z" fill="#1C8ADB" stroke="#1C8ADB" stroke-width="1.01223"/>
<path fill-rule="evenodd" clip-rule="evenodd" d="M23.669 8.8362C23.5998 8.83762 23.5306 8.84775 23.4629 8.86759C22.9213 9.02633 7.05305 14.7774 6.52606 14.9368C5.99883 15.0962 5.91989 15.8056 6.45284 15.9785C6.98579 16.1513 10.8205 17.2155 10.8205 17.2155C10.8205 17.2155 12.1935 21.365 12.3981 21.8761C12.6027 22.3871 13.316 22.5431 13.593 22.2277C13.7955 21.9972 15.8819 20.0639 15.8819 20.0639C15.8819 20.0639 19.4749 22.5261 20.1092 22.9353C20.7434 23.3444 21.4544 23.1854 21.6097 22.604C21.6938 22.2892 24.4287 10.2708 24.5366 9.72238C24.6311 9.24207 24.153 8.82655 23.6691 8.83655L23.669 8.8362ZM21.0998 11.4003C21.334 11.3835 21.3809 11.6128 21.2333 11.7498C21.0516 11.9185 13.3161 18.1793 13.3161 18.1793C13.3161 18.1793 13.0484 20.49 13.0063 20.7201C12.9641 20.9503 12.8299 20.9561 12.7393 20.7416C12.6938 20.6337 11.7402 17.5918 11.62 17.2591C11.4998 16.9265 11.5828 16.7862 11.7668 16.6764C11.9508 16.5666 20.5141 11.6378 20.9079 11.4553C20.9818 11.421 21.0457 11.404 21.0998 11.4002L21.0998 11.4003Z" fill="white"/>
</svg>
