<svg width="110" height="104" viewBox="0 0 110 104" fill="none" xmlns="http://www.w3.org/2000/svg">
<path d="M63.3948 74.7467H59.3462M63.3948 60.9141H59.3462M90.0479 60.9141H85.9993M36.7419 47.0816H32.6933M63.395 47.0816H59.3464M90.0481 47.0816H85.9995M90.0481 33.4177H85.9995M63.395 33.4177H59.3464M36.7419 33.4177H32.6933M89.4584 1.95786V10.5612M75.2884 1.95786V10.5612M61.287 1.95786V10.5612M47.2856 1.95786V10.5612M33.1156 1.95786V10.5612M88.9526 90.3526V72.4714H107.34M14.0538 20.347H107.508M14.3892 59.6523V10.0572C14.5535 6.59712 15.9098 6.17651 19.1125 6.34607H104.808C107.257 6.52064 107.47 7.42198 107.845 9.38247V72.1344L89.2886 91.0278L43.9091 90.8554M34.2218 70.5521L24.3417 78.8175L24.2719 89.5818M24.0028 63.3585H24.5581V63.9035H24.0028V63.3585ZM39.9441 79.4684H40.4994V80.0134H39.9441V79.4684ZM24.0028 95.241H24.5581V95.7861H24.0028V95.241ZM8.06155 79.4684H8.61685V80.0134H8.06155V79.4684ZM46.5285 79.7714C46.5285 85.6556 44.191 91.2988 40.0302 95.4596C35.8694 99.6204 30.2262 101.958 24.342 101.958C18.4578 101.958 12.8146 99.6204 8.65379 95.4596C4.49301 91.2988 2.15552 85.6556 2.15552 79.7714C2.15552 73.8872 4.49301 68.2439 8.65379 64.0832C12.8146 59.9224 18.4578 57.5849 24.342 57.5849C30.2262 57.5849 35.8694 59.9224 40.0302 64.0832C44.191 68.2439 46.5285 73.8872 46.5285 79.7714V79.7714Z" stroke="#1C8ADB" stroke-width="3" stroke-linecap="round"/>
</svg>
