<svg width="30" height="30" viewBox="0 0 30 30" fill="none" xmlns="http://www.w3.org/2000/svg">
<path d="M15.0003 0C11.0221 0 7.20677 1.58034 4.39374 4.39337C1.58071 7.2064 0.000366211 11.0217 0.000366211 14.9999C0.00695703 18.1599 1.01133 21.2371 2.87021 23.7924L0.981923 29.3982L6.79169 27.5402C9.23042 29.1409 12.083 29.9957 15 30C18.9783 30 22.7936 28.4197 25.6066 25.6066C28.4196 22.7936 30 18.9783 30 15.0001C30 11.0219 28.4196 7.20658 25.6066 4.39355C22.7936 1.58052 18.9783 0.000175237 15 0.000175237L15.0003 0ZM9.48277 6.72242C9.87084 6.72562 10.183 6.77093 10.2232 6.82118C10.4862 7.14994 11.6094 9.79937 12.0541 10.9884C12.2621 11.5977 11.7111 12.0863 11.3496 12.5014C11.038 12.8451 10.4298 13.2141 10.6599 13.7024C11.968 16.4778 14.2224 17.9891 16.579 19.1028C16.9084 19.1745 17.2292 19.2564 17.5488 19.0501C18.0326 18.7378 18.3614 18.1863 18.67 17.8001C18.9786 17.4138 19.1263 16.7748 19.6927 16.9932C20.208 17.1918 23.0582 18.4927 23.4954 18.7439C23.9328 18.9951 23.833 19.1787 23.8382 19.4893C23.883 21.5851 22.319 22.7949 20.8314 23.1539C18.3635 23.7492 15.2076 22.0207 13.9936 21.3791C10.4762 19.5217 7.05669 15.0147 6.29087 12.3915C5.91367 10.0514 6.27661 8.1265 8.02588 6.99904C8.35923 6.78419 8.98365 6.71856 9.48257 6.72267L9.48277 6.72242Z" fill="#4CAF50"/>
</svg>
